<svg xmlns="http://www.w3.org/2000/svg" width="495" height="195" viewBox="0 0 495 195"><defs><linearGradient id="bg" x1="0" y1="0" x2="1" y2="1"><stop offset="0%" stop-color="#0a1424"/><stop offset="100%" stop-color="#0d1b33"/></linearGradient><linearGradient id="g1" x1="0" y1="0" x2="1" y2="0"><stop offset="0%" stop-color="#8b5cf6"/><stop offset="100%" stop-color="#22d3ee"/></linearGradient></defs><rect width="495" height="195" rx="16" fill="url(#bg)"/><rect x="0" y="0" width="495" height="2" fill="url(#g1)"/><text x="28" y="40" font-family="Consolas,monospace" font-size="17" font-weight="700" fill="#00eaff">S K Ismail's GitHub Stats</text><g font-family="Consolas,monospace"><text x="28" y="82" font-size="13" fill="#93c5fd">Total Commits</text><text x="28" y="112" font-size="28" font-weight="700" fill="#ffffff">194+</text><circle cx="265" cy="105" r="32" fill="none" stroke="#22d3ee" stroke-width="3"/><circle cx="265" cy="105" r="32" fill="none" stroke="#8b5cf6" stroke-width="3" stroke-dasharray="120 200" stroke-linecap="round" transform="rotate(-90 265 105)"/><text x="265" y="112" text-anchor="middle" font-size="20" font-weight="700" fill="#facc15">A+</text><text x="265" y="140" text-anchor="middle" font-size="11" fill="#60a5fa">Rank</text><text x="400" y="75" font-size="12" fill="#93c5fd">Stars</text><text x="400" y="95" font-size="20" font-weight="700" fill="#8b5cf6">12</text><text x="400" y="118" font-size="12" fill="#93c5fd">Followers</text><text x="400" y="138" font-size="20" font-weight="700" fill="#22d3ee">12</text><text x="400" y="161" font-size="12" fill="#93c5fd">Repos</text><text x="400" y="181" font-size="20" font-weight="700" fill="#f472b6">15</text><text x="28" y="148" font-size="12" fill="#93c5fd">PRs</text><text x="28" y="168" font-size="16" font-weight="700" fill="#facc15">30+</text><text x="110" y="148" font-size="12" fill="#93c5fd">Issues</text><text x="110" y="168" font-size="16" font-weight="700" fill="#f472b6">8+</text><text x="185" y="148" font-size="12" fill="#93c5fd">Contributed to</text><text x="185" y="168" font-size="16" font-weight="700" fill="#34d399">3+</text></g><text x="467" y="186" text-anchor="end" font-family="Consolas,monospace" font-size="9" fill="#475569">live fallback · skismail57</text></svg>