<svg xmlns="http://www.w3.org/2000/svg" width="320" height="195" viewBox="0 0 320 195"><defs><linearGradient id="bg" x1="0" y1="0" x2="1" y2="1"><stop offset="0%" stop-color="#0a1424"/><stop offset="100%" stop-color="#0d1b33"/></linearGradient></defs><rect width="320" height="195" rx="16" fill="url(#bg)"/><rect x="0" y="0" width="320" height="2" fill="#22d3ee"/><text x="24" y="36" font-family="Consolas,monospace" font-size="15" font-weight="700" fill="#00eaff">Most Used Languages</text><g font-family="Consolas,monospace"><rect x="24" y="56" width="272" height="10" rx="5" fill="#1e293b"/><rect x="24" y="56" width="90" height="10" rx="5" fill="#3178c6"/><rect x="114" y="56" width="65" height="10" rx="5" fill="#f7df1e"/><rect x="179" y="56" width="42" height="10" rx="5" fill="#150458"/><rect x="221" y="56" width="35" height="10" rx="5" fill="#e34c26"/><rect x="256" y="56" width="22" height="10" rx="5" fill="#8b5cf6"/><text x="24" y="86" font-size="11" fill="#ffffff"><tspan fill="#3178c6">■</tspan> TypeScript <tspan fill="#64748b">33%</tspan></text><text x="160" y="86" font-size="11" fill="#ffffff"><tspan fill="#f7df1e">■</tspan> JavaScript <tspan fill="#64748b">24%</tspan></text><text x="24" y="106" font-size="11" fill="#ffffff"><tspan fill="#150458">■</tspan> Python <tspan fill="#64748b">15%</tspan></text><text x="160" y="106" font-size="11" fill="#ffffff"><tspan fill="#e34c26">■</tspan> HTML <tspan fill="#64748b">13%</tspan></text><text x="24" y="126" font-size="11" fill="#ffffff"><tspan fill="#8b5cf6">■</tspan> CSS <tspan fill="#64748b">8%</tspan></text><text x="160" y="126" font-size="11" fill="#ffffff"><tspan fill="#f89820">■</tspan> Java <tspan fill="#64748b">4%</tspan></text><text x="24" y="146" font-size="11" fill="#ffffff"><tspan fill="#013243">■</tspan> Shell <tspan fill="#64748b">2%</tspan></text><text x="160" y="146" font-size="11" fill="#ffffff"><tspan fill="#28c840">■</tspan> Go <tspan fill="#64748b">1%</tspan></text></g><text x="296" y="186" text-anchor="end" font-family="Consolas,monospace" font-size="9" fill="#475569">live fallback</text></svg>